<svg width="460" height="200" viewBox="0 0 460 200" xmlns="http://www.w3.org/2000/svg" role="img" aria-label="Most used languages">
<rect x="0.5" y="0.5" width="459" height="199" rx="10" fill="#0d1117" stroke="#1f2a37"/>
<text x="26" y="40" font-family="'Segoe UI', Ubuntu, Sans-Serif" font-size="18" font-weight="600" fill="#38bdf8">Most Used Languages</text>
<clipPath id="r"><rect x="26" y="62" width="408" height="14" rx="7"/></clipPath>
<g clip-path="url(#r)">
<rect x="26.0" y="62" width="255.2" height="14" fill="#3178c6"/>
<rect x="281.2" y="62" width="134.1" height="14" fill="#f1e05a"/>
<rect x="415.3" y="62" width="9.8" height="14" fill="#e34c26"/>
<rect x="425.0" y="62" width="4.1" height="14" fill="#663399"/>
<rect x="429.1" y="62" width="2.9" height="14" fill="#3572A5"/>
<rect x="432.0" y="62" width="2.0" height="14" fill="#336790"/>
</g>
<circle cx="31" cy="101" r="5" fill="#3178c6"/>
<text x="44" y="105" font-family="'Segoe UI', Ubuntu, Sans-Serif" font-size="13" fill="#c9d1d9">TypeScript</text>
<text x="196" y="105" font-family="'Segoe UI', Ubuntu, Sans-Serif" font-size="13" fill="#8b949e" text-anchor="end">62.6%</text>
<circle cx="255" cy="101" r="5" fill="#f1e05a"/>
<text x="268" y="105" font-family="'Segoe UI', Ubuntu, Sans-Serif" font-size="13" fill="#c9d1d9">JavaScript</text>
<text x="420" y="105" font-family="'Segoe UI', Ubuntu, Sans-Serif" font-size="13" fill="#8b949e" text-anchor="end">32.9%</text>
<circle cx="31" cy="127" r="5" fill="#e34c26"/>
<text x="44" y="131" font-family="'Segoe UI', Ubuntu, Sans-Serif" font-size="13" fill="#c9d1d9">HTML</text>
<text x="196" y="131" font-family="'Segoe UI', Ubuntu, Sans-Serif" font-size="13" fill="#8b949e" text-anchor="end">2.4%</text>
<circle cx="255" cy="127" r="5" fill="#663399"/>
<text x="268" y="131" font-family="'Segoe UI', Ubuntu, Sans-Serif" font-size="13" fill="#c9d1d9">CSS</text>
<text x="420" y="131" font-family="'Segoe UI', Ubuntu, Sans-Serif" font-size="13" fill="#8b949e" text-anchor="end">1.0%</text>
<circle cx="31" cy="153" r="5" fill="#3572A5"/>
<text x="44" y="157" font-family="'Segoe UI', Ubuntu, Sans-Serif" font-size="13" fill="#c9d1d9">Python</text>
<text x="196" y="157" font-family="'Segoe UI', Ubuntu, Sans-Serif" font-size="13" fill="#8b949e" text-anchor="end">0.7%</text>
<circle cx="255" cy="153" r="5" fill="#336790"/>
<text x="268" y="157" font-family="'Segoe UI', Ubuntu, Sans-Serif" font-size="13" fill="#c9d1d9">PLpgSQL</text>
<text x="420" y="157" font-family="'Segoe UI', Ubuntu, Sans-Serif" font-size="13" fill="#8b949e" text-anchor="end">0.5%</text>
</svg>